Coordinates
version=1
nRows=8
nColumns=63
inDegrees=yes

Units are S.I. units (second, meters, Newtons, ...)
If the header above contains a line with 'inDegrees', this indicates whether rotational values are in degrees (yes) or radians (no).

endheader
time	pelvis_tilt	pelvis_list	pelvis_rotation	pelvis_tx	pelvis_ty	pelvis_tz	hip_flexion_r	hip_adduction_r	hip_rotation_r	knee_angle_r	knee_angle_r_beta	ankle_angle_r	subtalar_angle_r	mtp_angle_r	hip_flexion_l	hip_adduction_l	hip_rotation_l	knee_angle_l	knee_angle_l_beta	ankle_angle_l	subtalar_angle_l	mtp_angle_l	L5_S1_Flex_Ext	L5_S1_Lat_Bending	L5_S1_axial_rotation	L4_L5_Flex_Ext	L4_L5_Lat_Bending	L4_L5_axial_rotation	L3_L4_Flex_Ext	L3_L4_Lat_Bending	L3_L4_axial_rotation	L2_L3_Flex_Ext	L2_L3_Lat_Bending	L2_L3_axial_rotation	L1_L2_Flex_Ext	L1_L2_Lat_Bending	L1_L2_axial_rotation	L1_T12_Flex_Ext	L1_T12_Lat_Bending	L1_T12_axial_rotation	Abs_r3	Abs_r2	Abs_r1	Abs_t1	Abs_t2	neck_flexion	neck_bending	neck_rotation	arm_flex_r	arm_add_r	arm_rot_r	elbow_flex_r	pro_sup_r	wrist_flex_r	wrist_dev_r	arm_flex_l	arm_add_l	arm_rot_l	elbow_flex_l	pro_sup_l	wrist_flex_l	wrist_dev_l
3.655172	-10.377457	-13.235519	78.875128	0.265060	0.875291	0.699288	38.060822	-3.731005	14.401865	39.597821	0.691112	49.849141	-7.573927	0.000000	29.947152	5.548272	-13.856929	25.413640	0.443552	48.785271	6.962507	0.000000	0.041989	-1.586129	1.093343	0.077978	-2.109552	1.161677	0.068984	-3.856515	1.161677	0.047990	-3.856515	0.956675	0.038991	-3.234435	0.888341	0.023993	-2.456914	0.820007	0.299926	-17.942613	6.080844	0.000000	0.000000	23.442157	9.611199	-10.165404	45.554943	-35.435535	9.656452	135.309062	88.569573	-7.767391	8.445076	14.665985	-21.315325	55.076403	37.974688	86.099480	-16.207178	-1.058551
3.672414	-8.598089	-12.399604	79.647037	0.263604	0.883270	0.695092	35.171510	-3.084669	12.799655	37.136608	0.648156	48.822662	-7.074173	0.000000	27.035808	4.863197	-12.607862	23.047449	0.402254	47.252263	6.253041	0.000000	0.046309	-1.355319	1.122955	0.086000	-1.802574	1.193140	0.076081	-3.295322	1.193140	0.052926	-3.295322	0.982586	0.043002	-2.763766	0.912401	0.026461	-2.099388	0.842216	0.330780	-15.331635	6.245539	0.000000	0.000000	22.168274	8.887792	-8.574318	46.055680	-36.915967	10.258034	135.995569	88.652329	-6.751260	7.991584	13.456726	-20.470968	53.412774	38.578943	85.589301	-15.927485	-0.595651
3.689655	-6.888841	-11.546876	80.441827	0.262196	0.890785	0.691182	32.323197	-2.425201	11.154605	34.736889	0.606273	47.768849	-6.474363	0.000000	24.239604	4.131233	-11.448714	20.870203	0.364254	45.695528	5.582901	0.000000	0.046724	-1.137281	1.121031	0.086771	-1.512584	1.191096	0.076762	-2.765185	1.191096	0.053401	-2.765185	0.980902	0.043388	-2.319143	0.910838	0.026698	-1.761648	0.840774	0.333743	-12.865150	6.234840	0.000000	0.000000	20.835068	8.333891	-7.166092	46.479740	-38.133690	10.648324	136.517673	88.926998	-5.985949	7.373077	12.154521	-19.764377	51.386646	39.386301	85.010892	-15.444931	0.037195
3.706897	-5.301344	-10.693605	81.269019	0.260827	0.897738	0.687580	29.561771	-1.811082	9.462107	32.441383	0.566209	46.695659	-5.764058	0.000000	21.609387	3.430321	-10.186294	18.914905	0.330127	44.051703	4.668600	0.000000	0.044652	-0.938802	1.096563	0.082923	-1.248606	1.165098	0.073358	-2.282603	1.165098	0.051032	-2.282603	0.959492	0.041464	-1.914405	0.890957	0.025514	-1.454204	0.822422	0.318943	-10.619914	6.098752	0.000000	0.000000	19.499530	7.952515	-6.049177	46.793855	-39.131023	10.777239	136.897779	89.224471	-5.303417	6.696891	10.859002	-19.200844	49.222035	40.305463	84.323727	-14.738195	0.763958
3.724138	-3.884365	-9.844302	82.080093	0.259587	0.904045	0.684331	26.932637	-1.263284	7.781479	30.297405	0.528789	45.611038	-4.959658	0.000000	19.187293	2.786830	-8.855346	17.227841	0.300683	42.322610	3.487795	0.000000	0.039595	-0.766065	1.074692	0.073533	-1.018867	1.141861	0.065051	-1.862611	1.141861	0.045254	-1.862611	0.940356	0.036768	-1.562160	0.873188	0.022625	-1.186635	0.806019	0.282826	-8.665881	5.977117	0.000000	0.000000	18.214804	7.707376	-5.302725	46.956550	-40.030929	10.673471	137.198076	89.222222	-4.682405	6.179533	9.689098	-18.773356	47.155149	41.282105	83.555112	-13.829057	1.565064
3.741379	-2.696690	-9.006174	82.849688	0.258560	0.909669	0.681441	24.467025	-0.831948	6.170762	28.332895	0.494502	44.529033	-4.091140	0.000000	16.991386	2.254221	-7.502662	15.805047	0.275850	40.515421	2.089801	0.000000	0.030996	-0.625850	1.072251	0.057563	-0.832380	1.139266	0.050924	-1.521691	1.139266	0.035425	-1.521691	0.938219	0.028783	-1.276233	0.871204	0.017711	-0.969441	0.804188	0.221402	-7.079737	5.963536	0.000000	0.000000	17.018312	7.575159	-4.929242	46.884729	-40.932481	10.394817	137.486902	88.771924	-4.090208	5.969602	8.724616	-18.483673	45.360254	42.281784	82.761622	-12.784393	2.415286
3.758621	-1.794871	-8.203023	83.535357	0.257852	0.914608	0.678890	22.208771	-0.559895	4.699055	26.563196	0.463615	43.472984	-3.194762	0.000000	15.042402	1.876384	-6.194590	14.618417	0.255140	38.653450	0.526755	0.000000	0.021038	-0.524981	1.111988	0.039070	-0.698224	1.181488	0.034564	-1.276438	1.181488	0.024045	-1.276438	0.972990	0.019536	-1.070541	0.903490	0.012021	-0.813195	0.833991	0.150274	-5.938688	6.184545	0.000000	0.000000	15.942773	7.487272	-4.996576	46.392363	-41.882478	9.902492	137.867614	87.875777	-3.420279	6.273434	8.066575	-18.322992	44.081255	43.218984	82.012925	-11.667159	3.266432
3.775862	-1.151692	-7.451326	84.142941	0.257436	0.918864	0.676741	20.186804	-0.429492	3.407149	25.011003	0.436524	42.445530	-2.345185	0.000000	13.377702	1.634714	-4.962866	13.700763	0.239123	36.841820	-1.096252	0.000000	0.009138	-0.458924	1.178359	0.016969	-0.610369	1.252007	0.015012	-1.115827	1.252007	0.010443	-1.115827	1.031064	0.008485	-0.935837	0.957417	0.005221	-0.710873	0.883770	0.065269	-5.191437	6.553682	0.000000	0.000000	15.060728	7.388060	-5.375310	45.510593	-42.897483	9.440507	138.297482	86.458885	-2.680872	6.975453	7.612284	-18.253073	43.031548	44.080500	81.417437	-10.619443	4.224349
